<svg xmlns="http://www.w3.org/2000/svg" viewBox="0 0 160 160" role="img" aria-labelledby="title desc">
  <title id="title">Dewa Web Service logo mark</title>
  <desc id="desc">Logo mark berbentuk huruf D dengan simbol kode dan laptop.</desc>
  <defs>
    <linearGradient id="markGradient" x1="20" x2="142" y1="130" y2="28" gradientUnits="userSpaceOnUse">
      <stop offset="0" stop-color="#0F2A5F" />
      <stop offset="0.52" stop-color="#1F8DBB" />
      <stop offset="1" stop-color="#65C7D9" />
    </linearGradient>
    <linearGradient id="panelGradient" x1="30" x2="78" y1="130" y2="38" gradientUnits="userSpaceOnUse">
      <stop offset="0" stop-color="#0B1E4C" />
      <stop offset="1" stop-color="#155C8E" />
    </linearGradient>
  </defs>
  <rect width="160" height="160" fill="none" />
  <path
    fill="url(#markGradient)"
    d="M64 30h23c40 0 70 29 70 66s-30 66-70 66H64v-27h23c24 0 42-17 42-39S111 57 87 57H64V30Z"
    transform="translate(-8 -16) scale(.98)"
  />
  <path
    fill="url(#panelGradient)"
    d="M29 30h46v107H29z"
    transform="translate(-8 -16) scale(.98)"
  />
  <path fill="#ffffff" d="M45 42h58v13H45z" />
  <path fill="#8BD3E6" d="M34 70h17v4H34zM34 80h26v4H34zM34 90h21v4H34zM34 100h30v4H34z" opacity=".95" />
  <path fill="#ffffff" d="M42 84 30 76l12-8v7l-4 1 4 1v7Zm18 0 12-8-12-8v7l4 1-4 1v7Z" />
  <path fill="#ffffff" d="m48 88 8-24h8l-8 24h-8Z" />
  <rect x="81" y="72" width="47" height="35" rx="4" fill="#ffffff" />
  <rect x="87" y="78" width="35" height="23" rx="2" fill="none" stroke="#155C8E" stroke-width="5" />
  <path fill="#ffffff" d="M77 111h55l8 15H69l8-15Z" />
  <path fill="#155C8E" d="M86 116h38l3 5H83l3-5Z" opacity=".9" />
</svg>
